# Blender v2.79 (sub 0) OBJ File: 'box.blend'
# www.blender.org
mtllib box.mtl
o Cube_Cube.001
v -0.902659 0.026199 1.214574
v -0.910384 0.006684 1.189694
v -0.936988 0.062122 1.214574
v -0.955637 0.054038 1.189694
v -0.902006 1.521851 1.214574
v -0.915010 1.536911 1.189694
v -0.955637 1.468699 1.189694
v -0.936988 1.463116 1.214574
v -0.902659 0.026199 -1.214574
v -0.910384 0.006684 -1.189694
v -0.936988 0.062122 -1.214574
v -0.955637 0.054038 -1.189694
v -0.902006 1.521851 -1.214574
v -0.915010 1.536911 -1.189694
v -0.936988 1.463116 -1.214574
v -0.955637 1.468699 -1.189694
v 0.902659 0.026199 1.214574
v 0.910384 0.006684 1.189694
v 0.936988 0.062122 1.214574
v 0.955637 0.054038 1.189694
v 0.902006 1.521851 1.214574
v 0.915010 1.536911 1.189694
v 0.936988 1.463116 1.214574
v 0.955637 1.468699 1.189694
v 0.936988 0.062122 -1.214574
v 0.955637 0.054038 -1.189694
v 0.902659 0.026199 -1.214574
v 0.910384 0.006684 -1.189694
v 0.902006 1.521851 -1.214574
v 0.915010 1.536911 -1.189694
v 0.955637 1.468699 -1.189694
v 0.936988 1.463116 -1.214574
v -0.081476 0.006684 -1.189694
v -0.081476 0.026199 -1.214574
v 0.081476 0.026199 -1.214574
v 0.081476 0.006684 -1.189694
v 0.081476 1.964854 -1.189694
v 0.077147 1.945340 -1.214574
v -0.077147 1.945340 -1.214574
v -0.081476 1.964854 -1.189694
v 0.081476 0.006684 1.189694
v 0.081476 0.026199 1.214574
v -0.081476 0.026199 1.214574
v -0.081476 0.006684 1.189694
v -0.081476 1.964854 1.189694
v -0.077147 1.945340 1.214574
v 0.077147 1.945340 1.214574
v 0.081476 1.964854 1.189694
vt 0.708668 0.960258
vt 0.708668 0.507282
vt 0.722632 0.507282
vt 0.722632 0.960258
vt 0.342675 0.770694
vt 0.005421 0.770694
vt 0.005421 0.729306
vt 0.342675 0.729306
vt 0.968414 0.960258
vt 0.968414 0.507282
vt 0.720463 0.479263
vt 0.713971 0.487982
vt 0.460796 0.487982
vt 0.450182 0.479097
vt 0.373653 0.269594
vt 0.373653 0.230406
vt 0.450182 0.020903
vt 0.460796 0.012018
vt 0.713971 0.012018
vt 0.720463 0.020737
vt 0.720463 0.229306
vt 0.720463 0.270694
vt 0.734832 0.460258
vt 0.734832 0.007282
vt 0.748796 0.007282
vt 0.748796 0.460258
vt 0.697825 0.760375
vt 0.360571 0.760375
vt 0.360571 0.718988
vt 0.697825 0.718988
vt 0.994579 0.460258
vt 0.994579 0.007282
vt 0.342675 0.518775
vt 0.005421 0.518775
vt 0.697825 0.972081
vt 0.360571 0.972081
vt 0.342675 0.981225
vt 0.005421 0.981225
vt 0.697825 0.507282
vt 0.360571 0.507282
vt 0.342675 0.992718
vt 0.005421 0.992718
vt 0.349266 0.012018
vt 0.355757 0.020737
vt 0.355757 0.229306
vt 0.355757 0.270694
vt 0.355757 0.479263
vt 0.349266 0.487982
vt 0.096091 0.487982
vt 0.085477 0.479097
vt 0.008948 0.269594
vt 0.008948 0.230406
vt 0.085477 0.020903
vt 0.096091 0.012018
vt 0.350726 0.007282
vt 0.359284 0.018775
vt 0.082755 0.017600
vt 0.095082 0.007282
vt 0.723989 0.481225
vt 0.715432 0.492718
vt 0.459787 0.492718
vt 0.447461 0.482400
vt 0.359284 0.481225
vt 0.350727 0.492718
vt 0.095082 0.492718
vt 0.082755 0.482400
vt 0.715432 0.007282
vt 0.723989 0.018775
vt 0.447461 0.017600
vt 0.459787 0.007282
vt 0.370127 0.270694
vt 0.370127 0.229306
vt 0.357044 0.759276
vt 0.357044 0.720087
vt 0.346202 0.729306
vt 0.346202 0.770694
vt 0.359284 0.229306
vt 0.359284 0.270694
vt 0.346202 0.520737
vt 0.346202 0.979263
vt 0.005421 0.270694
vt 0.005421 0.229306
vt 0.005421 0.507282
vt 0.342675 0.507282
vn -0.8592 0.5117 0.0000
vn 0.0000 -1.0000 0.0000
vn -1.0000 0.0000 0.0000
vn -0.0000 0.0000 -1.0000
vn 0.8592 0.5117 0.0000
vn 0.0000 1.0000 0.0000
vn 1.0000 0.0000 0.0000
vn -0.4567 0.8896 0.0000
vn 0.4567 0.8896 0.0000
vn 0.7230 -0.6909 0.0000
vn 0.0000 0.0000 1.0000
vn -0.5738 -0.5484 0.6083
vn -0.6844 0.4076 0.6045
vn -0.5738 -0.5484 -0.6083
vn -0.6844 0.4076 -0.6045
vn 0.5738 -0.5484 0.6083
vn 0.6844 0.4076 0.6045
vn 0.5738 -0.5484 -0.6083
vn 0.6844 0.4076 -0.6045
vn -0.8002 0.0000 0.5998
vn -0.8002 0.0000 -0.5998
vn 0.8002 0.0000 -0.5998
vn 0.8002 0.0000 0.5998
vn 0.0000 0.7868 -0.6172
vn 0.0000 0.7868 0.6172
vn 0.0000 -0.7868 -0.6172
vn 0.0000 -0.7868 0.6172
vn -0.3606 0.7024 -0.6137
vn 0.3606 0.7024 -0.6137
vn 0.3606 0.7024 0.6137
vn -0.3606 0.7024 0.6137
vn -0.7230 -0.6909 0.0000
usemtl None
s off
f 6/1/1 14/2/1 16/3/1 7/4/1
f 36/5/2 41/6/2 44/7/2 33/8/2
f 4/9/3 7/4/3 16/3/3 12/10/3
f 9/11/4 11/12/4 15/13/4 13/14/4 39/15/4 38/16/4 29/17/4 32/18/4 25/19/4 27/20/4 35/21/4 34/22/4
f 30/23/5 22/24/5 24/25/5 31/26/5
f 40/27/6 45/28/6 48/29/6 37/30/6
f 26/31/7 31/26/7 24/25/7 20/32/7
f 10/33/2 33/8/2 44/7/2 2/34/2
f 40/27/8 14/35/8 6/36/8 45/28/8
f 36/5/2 28/37/2 18/38/2 41/6/2
f 30/39/9 37/30/9 48/29/9 22/40/9
f 18/38/10 28/37/10 26/41/10 20/42/10
f 3/43/11 1/44/11 43/45/11 42/46/11 17/47/11 19/48/11 23/49/11 21/50/11 47/51/11 46/52/11 5/53/11 8/54/11
f 4/55/12 2/56/12 1/44/12 3/43/12
f 6/57/13 7/58/13 8/54/13 5/53/13
f 10/59/14 12/60/14 11/12/14 9/11/14
f 16/61/15 14/62/15 13/14/15 15/13/15
f 18/63/16 20/64/16 19/48/16 17/47/16
f 24/65/17 22/66/17 21/50/17 23/49/17
f 26/67/18 28/68/18 27/20/18 25/19/18
f 30/69/19 31/70/19 32/18/19 29/17/19
f 7/58/20 4/55/20 3/43/20 8/54/20
f 12/60/21 16/61/21 15/13/21 11/12/21
f 31/70/22 26/67/22 25/19/22 32/18/22
f 20/64/23 24/65/23 23/49/23 19/48/23
f 40/71/24 37/72/24 38/16/24 39/15/24
f 48/29/25 45/28/25 46/73/25 47/74/25
f 36/5/26 33/8/26 34/75/26 35/76/26
f 44/77/27 41/78/27 42/46/27 43/45/27
f 33/8/26 10/33/26 9/79/26 34/75/26
f 14/62/28 40/71/28 39/15/28 13/14/28
f 28/37/26 36/5/26 35/76/26 27/80/26
f 41/78/27 18/63/27 17/47/27 42/46/27
f 2/56/27 44/77/27 43/45/27 1/44/27
f 37/72/29 30/69/29 29/17/29 38/16/29
f 22/66/30 48/81/30 47/51/30 21/50/30
f 45/82/31 6/57/31 5/53/31 46/52/31
f 10/33/32 2/34/32 4/83/32 12/84/32
